<svg xmlns="http://www.w3.org/2000/svg" viewBox="0 0 64 64" width="64" height="64"> 
   <circle cx="32" cy="34" r="30" fill="#d1d9e6"/> 
   <circle cx="32" cy="32" r="30" fill="#f0f4f8"/> 
  
   <path d="M54.4,25.6l-5.2-0.9c-0.5-1.7-1.1-3.3-2-4.8l3.3-4.1c0.6-0.8,0.6-2-0.1-2.7l-4-4c-0.7-0.7-1.8-0.8-2.7-0.1l-4.1,3.3 
 	c-1.5-0.8-3.1-1.5-4.8-2l-0.9-5.2c-0.2-1-1-1.7-2.1-1.7h-5.7c-1,0-1.9,0.7-2.1,1.7l-0.9,5.2c-1.7,0.5-3.3,1.1-4.8,2l-4.1-3.3 
 	c-0.8-0.6-2-0.6-2.7,0.1l-4,4c-0.7,0.7-0.8,1.8-0.1,2.7l3.3,4.1c-0.8,1.5-1.5,3.1-2,4.8l-5.2,0.9c-1,0.2-1.7,1-1.7,2.1v5.7 
 	c0,1,0.7,1.9,1.7,2.1l5.2,0.9c0.5,1.7,1.1,3.3,2,4.8l-3.3,4.1c-0.6,0.8-0.6,2,0.1,2.7l4,4c0.7,0.7,1.8,0.8,2.7,0.1l4.1-3.3 
 	c1.5,0.8,3.1,1.5,4.8,2l0.9,5.2c0.2,1,1,1.7,2.1,1.7h5.7c1,0,1.9-0.7,2.1-1.7l0.9-5.2c1.7-0.5,3.3-1.1,4.8-2l4.1,3.3 
 	c0.8,0.6,2,0.6,2.7-0.1l4-4c0.7-0.7,0.8-1.8,0.1-2.7l-3.3-4.1c0.8-1.5,1.5-3.1,2-4.8l5.2-0.9c1-0.2,1.7-1,1.7-2.1v-5.7 
 	C56.1,26.6,55.4,25.8,54.4,25.6z" fill="#004a99" transform="translate(0.8, 3.8)"/> 
  
   <path d="M54.4,25.6l-5.2-0.9c-0.5-1.7-1.1-3.3-2-4.8l3.3-4.1c0.6-0.8,0.6-2-0.1-2.7l-4-4c-0.7-0.7-1.8-0.8-2.7-0.1l-4.1,3.3 
 	c-1.5-0.8-3.1-1.5-4.8-2l-0.9-5.2c-0.2-1-1-1.7-2.1-1.7h-5.7c-1,0-1.9,0.7-2.1,1.7l-0.9,5.2c-1.7,0.5-3.3,1.1-4.8,2l-4.1-3.3 
 	c-0.8-0.6-2-0.6-2.7,0.1l-4,4c-0.7,0.7-0.8,1.8-0.1,2.7l3.3,4.1c-0.8,1.5-1.5,3.1-2,4.8l-5.2,0.9c-1,0.2-1.7,1-1.7,2.1v5.7 
 	c0,1,0.7,1.9,1.7,2.1l5.2,0.9c0.5,1.7,1.1,3.3,2,4.8l-3.3,4.1c-0.6,0.8-0.6,2,0.1,2.7l4,4c0.7,0.7,1.8,0.8,2.7,0.1l4.1-3.3 
 	c1.5,0.8,3.1,1.5,4.8,2l0.9,5.2c0.2,1,1,1.7,2.1,1.7h5.7c1,0,1.9-0.7,2.1-1.7l0.9-5.2c1.7-0.5,3.3-1.1,4.8-2l4.1,3.3 
 	c0.8,0.6,2,0.6,2.7-0.1l4-4c0.7-0.7,0.8-1.8,0.1-2.7l-3.3-4.1c0.8-1.5,1.5-3.1,2-4.8l5.2-0.9c1-0.2,1.7-1,1.7-2.1v-5.7 
 	C56.1,26.6,55.4,25.8,54.4,25.6z" fill="#007bff" transform="translate(0.8, 0.8)"/> 
  
   <path d="M32,20c-6.6,0-12,5.4-12,12c0,2.8,1,5.4,2.6,7.4l-2.9,2.9c-0.6,0.6-0.2,1.7,0.7,1.7H28c0.6,0,1-0.4,1-1v-7.6 
 	c0-0.9-1-1.3-1.7-0.7l-2.4,2.4c-1-1.3-1.7-3-1.7-4.8c0-4.4,3.6-8,8-8c4.4,0,8,3.6,8,8c0,1.4-0.4,2.8-1,4l3.4,2 
 	C42.6,36.8,44,34.5,44,32C44,25.4,38.6,20,32,20z" fill="#c69500" transform="translate(0, 2)"/> 
   <path d="M32,20c-6.6,0-12,5.4-12,12c0,2.8,1,5.4,2.6,7.4l-2.9,2.9c-0.6,0.6-0.2,1.7,0.7,1.7H28c0.6,0,1-0.4,1-1v-7.6 
 	c0-0.9-1-1.3-1.7-0.7l-2.4,2.4c-1-1.3-1.7-3-1.7-4.8c0-4.4,3.6-8,8-8c4.4,0,8,3.6,8,8c0,1.4-0.4,2.8-1,4l3.4,2 
 	C42.6,36.8,44,34.5,44,32C44,25.4,38.6,20,32,20z" fill="#ffc107"/> 
 </svg>